<svg xmlns="http://www.w3.org/2000/svg" xmlns:svg="http://www.w3.org/2000/svg" id="svg5" width="512" height="512" version="1.1" viewBox="0 0 512 512"><g id="layer1"><rect style="fill:#8be028;fill-opacity:1;stroke-width:1.22954" id="rect1335" width="512" height="512" x="0" y="0"/><g id="g32446" transform="translate(4.026988,-2)"><ellipse style="fill:#fff;fill-rule:evenodd;stroke-width:.975743" id="path43" cx="382.5" cy="127.5" rx="27.5" ry="27.5"/><ellipse style="fill:#fff;fill-rule:evenodd;stroke-width:.975743" id="path43-0" cx="322.5" cy="187.5" rx="27.5" ry="27.5"/><ellipse style="fill:#fff;fill-rule:evenodd;stroke-width:.975743" id="path43-0-8" cx="262.5" cy="247.5" rx="27.5" ry="27.5"/></g><path id="path14887" d="m 118.02699,96 c 0,0 -53.453132,42.00586 -52.453132,87.00586 C 66.132778,208.15693 88.02699,228 105.02699,247 c 17,19 41,32 46,59 2.9642,16.00667 -10,22 -19,35 -10.69448,15.44759 7,32 7,32 0,0 16.55241,17.69448 32,7 13,-9 18.99333,-21.9642 35,-19 27,5 40,29 59,46 19,17 38.84307,38.89422 63.99414,39.45312 45,1 87.00586,-52.45312 87.00586,-52.45312 l -29,-29 c 0,0 -23,27 -43,27 -45.54726,-8.62286 -61.09453,-59.51652 -100,-77 -29,-12 -45.70462,12.59847 -53,6 -6.59847,-7.29538 18,-24 6,-53 -17.48348,-38.90547 -68.37714,-54.45274 -77,-100 0,-20 27,-43 27,-43 z" style="fill:#497715;stroke:none"/></g></svg>