<svg xmlns="http://www.w3.org/2000/svg"
aria-label="VLC" role="img"
viewBox="0 0 512 512"><rect
width="512" height="512"
rx="15%"
fill="#fff"/><path fill="#f7901e" d="M401 306a24 24 0 00-23-16H134a24 24 0 00-23 16l-36 94A29 29 0 00102 440h308a29 29 0 0027-40zM284 58a26 26 0 00-24-18h-8a26 26 0 00-24 18l-15 51a307 307 0 0086 0zm35 119a330 330 0 01-127 0l-19 65a260 260 0 00166 0z"/><path fill="#f2f2f2" d="M299 109a320 320 0 01-86 0l-21 68A330 330 0 00319 177zM155 304c19 14 55 23 101 23 46 0 82-9 101-23l-18-62A270 270 0 01173 242z"/></svg>